<?xml version="1.0" encoding="utf-8"?>
<svg width="20px" height="20px" viewBox="0 0 20 20" version="1.1" xmlns:xlink="http://www.w3.org/1999/xlink" xmlns="http://www.w3.org/2000/svg">
  <defs>
    <path d="M0 0L20 0L20 20L0 20L0 0Z" id="path_1" />
    <clipPath id="clip_1">
      <use xlink:href="#path_1" />
    </clipPath>
  </defs>
  <g id="Search" clip-path="url(#clip_1)">
    <path d="M0 0L20 0L20 20L0 20L0 0Z" id="Search" fill="none" fill-rule="evenodd" stroke="none" />
    <path d="M8.40014 1.19999C4.64069 1.19999 1.59999 4.24068 1.59999 8.00013C1.59999 11.7596 4.64069 14.8003 8.40014 14.8003C9.74236 14.8003 10.9846 14.4065 12.0377 13.7378L16.9503 18.6503L18.6503 16.9503L13.8002 12.1127C14.6722 10.9689 15.2003 9.55173 15.2003 8.00013C15.2003 4.24068 12.1596 1.19999 8.40014 1.19999L8.40014 1.19999ZM8.40012 2.80001C11.2799 2.80001 13.6002 5.12038 13.6002 8.00012C13.6002 10.8799 11.2799 13.2002 8.40012 13.2002C5.52037 13.2002 3.20001 10.8799 3.20001 8.00012C3.20001 5.12038 5.52037 2.80001 8.40012 2.80001L8.40012 2.80001Z" id="Shape" fill="#000000" fill-rule="evenodd" stroke="none" />
  </g>
</svg>